<svg xmlns="http://www.w3.org/2000/svg" version="1.0" width="153.000000pt" height="153.000000pt" viewBox="0 0 153.000000 153.000000" preserveAspectRatio="xMidYMid meet">

<g transform="translate(0.000000,153.000000) scale(0.100000,-0.100000)" fill="#03a300" stroke="none">
<path d="M775 1377 c-10 -16 -15 -41 -13 -69 2 -35 7 -43 23 -43 17 0 20 8 23 59 4 69 -9 89 -33 53z" fill="#03a300"/>
<path d="M523 1318 c7 -49 36 -92 66 -96 30 -5 27 16 -11 82 -40 69 -63 75 -55 14z" fill="#03a300"/>
<path d="M992 1329 c-35 -36 -40 -56 -16 -66 19 -7 71 42 76 72 5 32 -26 29 -60 -6z" fill="#03a300"/>
<path d="M745 1201 c-124 -9 -165 -24 -195 -74 -22 -36 -35 -106 -26 -142 11 -42 23 -28 31 32 15 124 45 143 245 150 116 5 141 3 173 -12 39 -18 77 -81 77 -126 0 -14 7 -34 15 -45 13 -16 16 -17 25 -4 26 37 -33 170 -89 203 -38 23 -109 28 -256 18z" fill="#03a300"/>
<path d="M1153 1058 c-26 -13 -47 -59 -41 -92 6 -31 -24 -41 -47 -16 -27 30 -108 68 -169 79 -73 13 -180 -2 -199 -28 -6 -10 -34 -23 -61 -30 -27 -7 -64 -18 -82 -26 -22 -9 -36 -10 -40 -4 -3 6 -15 8 -26 5 -14 -3 -30 5 -53 30 -18 19 -39 34 -47 34 -24 0 -68 -40 -68 -61 0 -17 -7 -19 -66 -19 -59 0 -65 2 -53 16 12 15 24 15 62 -1 24 -10 23 21 -2 35 -34 18 -62 11 -93 -22 -17 -18 -44 -37 -61 -43 -52 -17 -59 -43 -52 -185 3 -69 14 -213 25 -320 22 -212 31 -239 86 -251 48 -11 389 -10 400 1 6 6 24 4 49 -5 115 -39 278 -37 389 6 28 10 53 15 56 9 12 -20 63 -28 213 -35 137 -7 160 -6 182 9 l25 16 0 163 c0 89 -5 242 -10 340 -10 196 -22 241 -73 265 -21 10 -26 18 -21 36 8 32 -37 83 -84 96 -47 13 -110 12 -139 -2z m148 -31 c25 -17 35 -31 37 -55 l3 -32 -83 0 c-52 0 -89 5 -96 12 -19 19 -14 47 13 73 31 32 81 33 126 2z m-883 -74 c2 -9 -8 -13 -32 -13 -34 0 -44 8 -29 24 11 11 56 2 61 -11z m272 -35 c-17 -23 -44 -50 -60 -60 l-31 -18 16 31 c9 17 15 35 13 41 -4 11 -85 -100 -183 -250 -33 -50 -64 -92 -69 -92 -15 0 5 113 29 167 30 67 70 117 120 150 44 30 176 83 187 76 4 -2 -6 -22 -22 -45z m220 45 c0 -5 -7 -17 -15 -27 -27 -36 -16 -41 18 -8 l32 31 43 -25 c23 -14 42 -27 42 -29 0 -2 -13 -17 -30 -33 l-29 -29 -36 24 c-49 33 -133 50 -179 36 -20 -6 -36 -9 -36 -7 0 3 12 21 28 40 26 33 30 34 95 34 37 0 67 -3 67 -7z m-436 -68 c-18 -14 -46 -47 -64 -75 -111 -172 -87 -413 55 -565 l40 -43 -65 -6 c-36 -3 -84 -6 -107 -6 l-42 0 -6 48 c-10 73 -73 384 -80 390 -3 3 -9 1 -14 -4 -6 -7 27 -257 53 -399 l7 -36 -43 3 c-34 2 -45 8 -54 28 -16 33 -54 409 -54 532 0 82 3 99 17 106 10 5 68 13 128 17 61 3 139 12 175 20 90 18 89 18 54 -10z m933 -8 c16 -16 18 -47 20 -362 l3 -345 -31 0 c-17 0 -87 7 -156 15 -69 9 -133 13 -141 10 -8 -3 3 14 26 39 96 104 130 242 101 401 -12 66 -57 172 -92 219 -13 17 -26 36 -29 41 -4 7 43 8 138 5 120 -4 146 -8 161 -23z m-517 -55 c105 -52 178 -194 168 -330 -8 -111 -61 -187 -155 -222 -148 -55 -319 14 -389 156 -22 46 -27 70 -27 129 0 126 60 222 178 283 54 28 148 21 225 -16z m207 -11 l31 -48 -30 -31 -31 -30 -33 50 c-19 27 -34 53 -34 56 0 11 43 52 54 52 6 0 25 -22 43 -49z m62 -118 c12 -30 11 -35 -21 -76 l-34 -44 -12 50 c-11 48 -11 51 16 82 30 35 33 35 51 -12z m-696 -133 c-1 -60 -5 -76 -28 -106 -30 -39 -37 -36 -49 22 -6 26 0 41 35 93 24 33 43 61 43 61 1 0 0 -32 -1 -70z m724 -55 c-7 -98 -48 -185 -116 -249 -29 -26 -55 -46 -57 -43 -3 3 22 46 55 96 64 94 84 135 74 145 -4 3 -15 -2 -25 -11 -19 -17 -19 -16 -12 46 6 54 12 68 38 92 27 24 32 25 40 12 5 -9 6 -48 3 -88z m-691 -107 c10 -23 39 -63 65 -89 l47 -48 -23 -21 c-18 -17 -27 -20 -42 -11 -39 20 -45 36 -26 69 23 40 7 55 -21 20 l-21 -27 -28 44 -29 45 24 29 c12 17 26 30 29 30 3 1 14 -18 25 -41z m479 -162 c-9 -13 -14 -30 -13 -37 2 -8 -14 -18 -42 -25 -25 -6 -47 -10 -49 -8 -12 10 87 89 117 94 1 0 -5 -11 -13 -24z m-282 -43 c-9 -14 -22 -22 -30 -19 -8 4 -20 6 -26 6 -7 0 -18 4 -26 9 -11 7 -10 13 5 33 18 24 20 24 56 10 36 -14 36 -15 21 -39z m141 -8 c-14 -21 -24 -25 -65 -25 -54 0 -55 1 -37 30 10 16 24 20 66 20 l52 0 -16 -25z" fill="#03a300"/>
<path d="M1322 804 c-12 -8 -22 -24 -22 -34 0 -22 25 -50 45 -50 20 0 45 28 45 50 0 18 -24 50 -38 50 -4 0 -18 -7 -30 -16z m48 -40 c0 -10 -7 -14 -22 -12 -32 5 -35 28 -4 28 17 0 26 -5 26 -16z" fill="#03a300"/>
<path d="M801 679 c-31 -19 -35 -19 -66 -5 -18 9 -44 16 -58 16 -31 0 -88 -38 -104 -70 -28 -55 -9 -134 43 -181 34 -30 120 -79 141 -79 32 0 113 52 156 100 80 89 86 171 18 217 -42 28 -86 29 -130 2z m121 -49 c13 -18 17 -34 12 -58 -9 -45 -73 -114 -137 -148 l-55 -28 -35 27 c-62 47 -96 87 -102 120 -17 89 66 139 134 81 l31 -26 30 32 c24 26 35 31 66 28 26 -2 43 -11 56 -28z" fill="#03a300"/>
</g>
</svg>