<svg width="202" height="45" viewBox="0 0 202 45" fill="none" xmlns="http://www.w3.org/2000/svg">
<path d="M0.198063 35V11.816H6.48606V35H0.198063ZM15.3181 35V21.32C15.3181 19.976 14.8861 18.936 14.0221 18.2C13.1901 17.432 12.1501 17.048 10.9021 17.048C10.0701 17.048 9.31806 17.224 8.64606 17.576C7.97406 17.896 7.44606 18.376 7.06206 19.016C6.67806 19.656 6.48606 20.424 6.48606 21.32L4.03806 20.12C4.03806 18.328 4.42206 16.776 5.19006 15.464C5.99006 14.152 7.06206 13.144 8.40606 12.44C9.75006 11.704 11.2701 11.336 12.9661 11.336C14.5661 11.336 16.0221 11.704 17.3341 12.44C18.6461 13.144 19.6861 14.152 20.4541 15.464C21.2221 16.744 21.6061 18.296 21.6061 20.12V35H15.3181ZM30.4381 35V21.32C30.4381 19.976 30.0061 18.936 29.1421 18.2C28.3101 17.432 27.2701 17.048 26.0221 17.048C25.2221 17.048 24.4701 17.224 23.7661 17.576C23.0941 17.896 22.5661 18.376 22.1821 19.016C21.7981 19.656 21.6061 20.424 21.6061 21.32L18.0061 20.456C18.1341 18.6 18.6301 17 19.4941 15.656C20.3581 14.28 21.4941 13.224 22.9021 12.488C24.3101 11.72 25.8781 11.336 27.6061 11.336C29.3341 11.336 30.8861 11.704 32.2621 12.44C33.6381 13.144 34.7261 14.168 35.5261 15.512C36.3261 16.856 36.7261 18.456 36.7261 20.312V35H30.4381ZM51.5191 35.48C49.4071 35.48 47.5031 34.952 45.8071 33.896C44.1111 32.84 42.7831 31.4 41.8231 29.576C40.8631 27.752 40.3831 25.704 40.3831 23.432C40.3831 21.128 40.8631 19.064 41.8231 17.24C42.7831 15.416 44.1111 13.976 45.8071 12.92C47.5031 11.864 49.4071 11.336 51.5191 11.336C53.1831 11.336 54.6711 11.672 55.9831 12.344C57.2951 13.016 58.3351 13.96 59.1031 15.176C59.9031 16.36 60.3351 17.704 60.3991 19.208V27.56C60.3351 29.096 59.9031 30.456 59.1031 31.64C58.3351 32.824 57.2951 33.768 55.9831 34.472C54.6711 35.144 53.1831 35.48 51.5191 35.48ZM52.6711 29.672C54.4311 29.672 55.8551 29.096 56.9431 27.944C58.0311 26.76 58.5751 25.24 58.5751 23.384C58.5751 22.168 58.3191 21.096 57.8071 20.168C57.3271 19.208 56.6391 18.472 55.7431 17.96C54.8791 17.416 53.8551 17.144 52.6711 17.144C51.5191 17.144 50.4951 17.416 49.5991 17.96C48.7351 18.472 48.0471 19.208 47.5351 20.168C47.0551 21.096 46.8151 22.168 46.8151 23.384C46.8151 24.632 47.0551 25.736 47.5351 26.696C48.0471 27.624 48.7351 28.36 49.5991 28.904C50.4951 29.416 51.5191 29.672 52.6711 29.672ZM58.2391 35V28.76L59.2471 23.096L58.2391 17.528V11.816H64.4791V35H58.2391ZM85.6418 35V21.704C85.6418 20.328 85.2098 19.208 84.3458 18.344C83.4818 17.48 82.3618 17.048 80.9858 17.048C80.0898 17.048 79.2898 17.24 78.5858 17.624C77.8818 18.008 77.3218 18.552 76.9058 19.256C76.5218 19.96 76.3298 20.776 76.3298 21.704L73.8818 20.456C73.8818 18.632 74.2658 17.048 75.0338 15.704C75.8338 14.328 76.9218 13.256 78.2978 12.488C79.7058 11.72 81.2898 11.336 83.0498 11.336C84.7458 11.336 86.2658 11.768 87.6098 12.632C88.9538 13.464 90.0098 14.568 90.7778 15.944C91.5458 17.288 91.9298 18.744 91.9298 20.312V35H85.6418ZM70.0418 35V11.816H76.3298V35H70.0418ZM106.787 35.48C104.643 35.48 102.723 34.952 101.027 33.896C99.3309 32.84 97.9869 31.4 96.9949 29.576C96.0349 27.752 95.5549 25.704 95.5549 23.432C95.5549 21.128 96.0349 19.064 96.9949 17.24C97.9869 15.416 99.3149 13.976 100.979 12.92C102.675 11.864 104.611 11.336 106.787 11.336C108.451 11.336 109.939 11.672 111.251 12.344C112.595 13.016 113.667 13.96 114.467 15.176C115.299 16.36 115.747 17.704 115.811 19.208V27.464C115.747 28.968 115.315 30.328 114.515 31.544C113.715 32.76 112.643 33.72 111.299 34.424C109.955 35.128 108.451 35.48 106.787 35.48ZM107.843 29.672C109.027 29.672 110.051 29.416 110.915 28.904C111.811 28.36 112.499 27.624 112.979 26.696C113.491 25.736 113.747 24.632 113.747 23.384C113.747 22.168 113.491 21.096 112.979 20.168C112.499 19.208 111.811 18.472 110.915 17.96C110.051 17.416 109.043 17.144 107.891 17.144C106.707 17.144 105.667 17.416 104.771 17.96C103.907 18.504 103.219 19.24 102.707 20.168C102.227 21.096 101.987 22.168 101.987 23.384C101.987 24.632 102.227 25.736 102.707 26.696C103.219 27.624 103.923 28.36 104.819 28.904C105.715 29.416 106.723 29.672 107.843 29.672ZM119.651 35H113.411V28.76L114.419 23.096L113.363 17.528V0.295998H119.651V35ZM136.302 35.48C133.87 35.48 131.71 34.968 129.822 33.944C127.934 32.888 126.43 31.448 125.31 29.624C124.222 27.8 123.678 25.72 123.678 23.384C123.678 21.08 124.206 19.032 125.262 17.24C126.35 15.416 127.822 13.976 129.678 12.92C131.534 11.832 133.598 11.288 135.87 11.288C138.11 11.288 140.078 11.8 141.774 12.824C143.502 13.816 144.846 15.192 145.806 16.952C146.798 18.68 147.294 20.648 147.294 22.856C147.294 23.272 147.262 23.704 147.198 24.152C147.166 24.568 147.086 25.048 146.958 25.592L127.47 25.64V20.936L144.03 20.888L141.486 22.856C141.422 21.48 141.166 20.328 140.718 19.4C140.302 18.472 139.678 17.768 138.846 17.288C138.046 16.776 137.054 16.52 135.87 16.52C134.622 16.52 133.534 16.808 132.606 17.384C131.678 17.928 130.958 18.712 130.446 19.736C129.966 20.728 129.726 21.912 129.726 23.288C129.726 24.696 129.982 25.928 130.494 26.984C131.038 28.008 131.806 28.808 132.798 29.384C133.79 29.928 134.942 30.2 136.254 30.2C137.438 30.2 138.51 30.008 139.47 29.624C140.43 29.208 141.262 28.6 141.966 27.8L145.662 31.496C144.542 32.808 143.166 33.8 141.534 34.472C139.934 35.144 138.19 35.48 136.302 35.48ZM162.27 35.48C159.838 35.48 157.678 34.968 155.79 33.944C153.902 32.888 152.398 31.448 151.278 29.624C150.19 27.8 149.646 25.72 149.646 23.384C149.646 21.08 150.174 19.032 151.23 17.24C152.318 15.416 153.79 13.976 155.646 12.92C157.502 11.832 159.566 11.288 161.838 11.288C164.078 11.288 166.046 11.8 167.742 12.824C169.47 13.816 170.814 15.192 171.774 16.952C172.766 18.68 173.262 20.648 173.262 22.856C173.262 23.272 173.23 23.704 173.166 24.152C173.134 24.568 173.054 25.048 172.926 25.592L153.438 25.64V20.936L169.998 20.888L167.454 22.856C167.39 21.48 167.134 20.328 166.686 19.4C166.27 18.472 165.646 17.768 164.814 17.288C164.014 16.776 163.022 16.52 161.838 16.52C160.59 16.52 159.502 16.808 158.574 17.384C157.646 17.928 156.926 18.712 156.414 19.736C155.934 20.728 155.694 21.912 155.694 23.288C155.694 24.696 155.95 25.928 156.462 26.984C157.006 28.008 157.774 28.808 158.766 29.384C159.758 29.928 160.91 30.2 162.222 30.2C163.406 30.2 164.478 30.008 165.438 29.624C166.398 29.208 167.23 28.6 167.934 27.8L171.63 31.496C170.51 32.808 169.134 33.8 167.502 34.472C165.902 35.144 164.158 35.48 162.27 35.48ZM190.015 35.48C188.351 35.48 186.847 35.144 185.503 34.472C184.159 33.768 183.087 32.824 182.287 31.64C181.487 30.456 181.055 29.096 180.991 27.56V19.352C181.055 17.816 181.487 16.456 182.287 15.272C183.119 14.056 184.191 13.096 185.503 12.392C186.847 11.688 188.351 11.336 190.015 11.336C192.159 11.336 194.079 11.864 195.775 12.92C197.471 13.976 198.799 15.416 199.759 17.24C200.751 19.064 201.247 21.128 201.247 23.432C201.247 25.704 200.751 27.752 199.759 29.576C198.799 31.4 197.471 32.84 195.775 33.896C194.079 34.952 192.159 35.48 190.015 35.48ZM188.911 29.672C190.063 29.672 191.087 29.416 191.983 28.904C192.879 28.36 193.567 27.624 194.047 26.696C194.559 25.736 194.815 24.632 194.815 23.384C194.815 22.168 194.559 21.096 194.047 20.168C193.567 19.208 192.879 18.472 191.983 17.96C191.087 17.416 190.063 17.144 188.911 17.144C187.791 17.144 186.783 17.416 185.887 17.96C184.991 18.472 184.287 19.208 183.775 20.168C183.295 21.096 183.055 22.168 183.055 23.384C183.055 24.632 183.295 25.736 183.775 26.696C184.287 27.624 184.975 28.36 185.839 28.904C186.735 29.416 187.759 29.672 188.911 29.672ZM177.151 44.696V11.816H183.439V17.912L182.383 23.528L183.391 29.144V44.696H177.151Z" fill="white"/>
</svg>
