<svg width="214" height="51" viewBox="0 0 214 51" fill="none" xmlns="http://www.w3.org/2000/svg">
<path fill-rule="evenodd" clip-rule="evenodd" d="M113.243 40.315C110.786 40.315 108.586 39.71 106.643 38.5C104.7 37.29 103.16 35.64 102.023 33.55C100.923 31.46 100.373 29.1133 100.373 26.51C100.373 23.87 100.923 21.505 102.023 19.415C103.16 17.325 104.681 15.675 106.588 14.465C108.531 13.255 110.75 12.65 113.243 12.65C115.15 12.65 116.855 13.035 118.358 13.805C119.275 14.2636 120.082 14.8328 120.778 15.5125V0H127.983V39.765H120.833V37.3515C120.137 38.04 119.33 38.6245 118.413 39.105C116.873 39.9117 115.15 40.315 113.243 40.315ZM114.453 33.66C115.81 33.66 116.983 33.3667 117.973 32.78C119 32.1567 119.788 31.3133 120.338 30.25C120.925 29.15 121.218 27.885 121.218 26.455C121.218 25.0617 120.925 23.8333 120.338 22.77C119.788 21.67 119 20.8267 117.973 20.24C116.983 19.6167 115.828 19.305 114.508 19.305C113.151 19.305 111.96 19.6167 110.933 20.24C109.943 20.8633 109.155 21.7067 108.568 22.77C108.018 23.8333 107.743 25.0617 107.743 26.455C107.743 27.885 108.018 29.15 108.568 30.25C109.155 31.3133 109.961 32.1567 110.988 32.78C112.015 33.3667 113.17 33.66 114.453 33.66ZM0 38.5302V11.9652H7.205V14.27C7.8495 13.6408 8.58284 13.1109 9.405 12.6802C10.945 11.8369 12.6867 11.4152 14.63 11.4152C16.4633 11.4152 18.1317 11.8369 19.635 12.6802C20.8948 13.3562 21.9358 14.2769 22.7579 15.4422C23.6466 14.3081 24.7323 13.4057 26.015 12.7352C27.6283 11.8552 29.425 11.4152 31.405 11.4152C33.385 11.4152 35.1633 11.8369 36.74 12.6802C38.3167 13.4869 39.5633 14.6602 40.48 16.2002C41.3967 17.7402 41.855 19.5736 41.855 21.7002V38.5302H34.65V22.8552C34.65 21.3152 34.155 20.1236 33.165 19.2802C32.2117 18.4002 31.02 17.9602 29.59 17.9602C28.6733 17.9602 27.8117 18.1619 27.005 18.5652C26.235 18.9319 25.63 19.4819 25.19 20.2152C24.75 20.9486 24.53 21.8286 24.53 22.8552V38.5302H17.325V22.8552C17.325 21.3152 16.83 20.1236 15.84 19.2802C14.8867 18.4002 13.695 17.9602 12.265 17.9602C11.3117 17.9602 10.45 18.1619 9.68 18.5652C8.91 18.9319 8.305 19.4819 7.865 20.2152C7.425 20.9486 7.205 21.8286 7.205 22.8552V38.5302H0ZM56.133 40.3152C53.713 40.3152 51.5313 39.7102 49.588 38.5002C47.6447 37.2902 46.123 35.6402 45.023 33.5502C43.923 31.4602 43.373 29.1136 43.373 26.5102C43.373 23.8702 43.923 21.5052 45.023 19.4152C46.123 17.3252 47.6447 15.6752 49.588 14.4652C51.5313 13.2552 53.713 12.6502 56.133 12.6502C58.0397 12.6502 59.7447 13.0352 61.248 13.8052C62.2474 14.3171 63.1091 14.9667 63.833 15.7541V13.2002H70.983V39.7652H63.833V37.1868C63.1091 37.9662 62.2474 38.624 61.248 39.1602C59.7447 39.9302 58.0397 40.3152 56.133 40.3152ZM57.453 33.6602C59.4697 33.6602 61.1013 33.0002 62.348 31.6802C63.5947 30.3236 64.218 28.5819 64.218 26.4552C64.218 25.0619 63.9247 23.8336 63.338 22.7702C62.788 21.6702 61.9997 20.8269 60.973 20.2402C59.983 19.6169 58.8097 19.3052 57.453 19.3052C56.133 19.3052 54.9597 19.6169 53.933 20.2402C52.943 20.8269 52.1547 21.6702 51.568 22.7702C51.018 23.8336 50.743 25.0619 50.743 26.4552C50.743 27.8852 51.018 29.1502 51.568 30.2502C52.1547 31.3136 52.943 32.1569 53.933 32.7802C54.9597 33.3669 56.133 33.6602 57.453 33.6602ZM90.6231 24.5302V39.7652H97.8281V22.9352C97.8281 21.1386 97.3881 19.4702 96.5081 17.9302C95.6281 16.3536 94.4181 15.0886 92.8781 14.1352C91.3381 13.1452 89.5964 12.6502 87.6531 12.6502C85.6364 12.6502 83.8214 13.0902 82.2081 13.9702C81.3612 14.4429 80.6096 15.0161 79.9531 15.6897V13.2002H72.7481V39.7652H79.9531V24.5302C79.9531 23.4669 80.1731 22.5319 80.6131 21.7252C81.0898 20.9186 81.7314 20.2952 82.5381 19.8552C83.3448 19.4152 84.2614 19.1952 85.2881 19.1952C86.8648 19.1952 88.1481 19.6902 89.1381 20.6802C90.1281 21.6702 90.6231 22.9536 90.6231 24.5302ZM135.592 38.5549C137.755 39.7282 140.23 40.3149 143.017 40.3149C145.18 40.3149 147.179 39.9299 149.012 39.1599C150.882 38.3899 152.459 37.2532 153.742 35.7499L149.507 31.5149C148.7 32.4316 147.747 33.1282 146.647 33.6049C145.547 34.0449 144.319 34.2649 142.962 34.2649C141.459 34.2649 140.139 33.9532 139.002 33.3299C137.865 32.6699 136.985 31.7532 136.362 30.5799C136.128 30.0964 135.94 29.5807 135.799 29.0327L155.227 28.9849C155.374 28.3616 155.465 27.8116 155.502 27.3349C155.575 26.8216 155.612 26.3266 155.612 25.8499C155.612 23.3199 155.044 21.0649 153.907 19.0849C152.807 17.0682 151.267 15.4916 149.287 14.3549C147.344 13.1816 145.089 12.5949 142.522 12.5949C139.919 12.5949 137.554 13.2182 135.427 14.4649C133.3 15.6749 131.614 17.3249 130.367 19.4149C129.157 21.4682 128.552 23.8149 128.552 26.4549C128.552 29.1316 129.175 31.5149 130.422 33.6049C131.705 35.6949 133.429 37.3449 135.592 38.5549ZM135.806 23.6415C135.934 23.1552 136.102 22.6997 136.307 22.2749C136.894 21.1016 137.719 20.2032 138.782 19.5799C139.845 18.9199 141.092 18.5899 142.522 18.5899C143.879 18.5899 145.015 18.8832 145.932 19.4699C146.885 20.0199 147.6 20.8266 148.077 21.8899C148.324 22.4018 148.52 22.9733 148.666 23.6042L135.806 23.6415ZM171.017 40.3149C168.23 40.3149 165.755 39.7282 163.592 38.5549C161.429 37.3449 159.705 35.6949 158.422 33.6049C157.175 31.5149 156.552 29.1316 156.552 26.4549C156.552 23.8149 157.157 21.4682 158.367 19.4149C159.614 17.3249 161.3 15.6749 163.427 14.4649C165.554 13.2182 167.919 12.5949 170.522 12.5949C173.089 12.5949 175.344 13.1816 177.287 14.3549C179.267 15.4916 180.807 17.0682 181.907 19.0849C183.044 21.0649 183.612 23.3199 183.612 25.8499C183.612 26.3266 183.575 26.8216 183.502 27.3349C183.465 27.8116 183.374 28.3616 183.227 28.9849L163.799 29.0327C163.94 29.5807 164.128 30.0964 164.362 30.5799C164.985 31.7532 165.865 32.6699 167.002 33.3299C168.139 33.9532 169.459 34.2649 170.962 34.2649C172.319 34.2649 173.547 34.0449 174.647 33.6049C175.747 33.1282 176.7 32.4316 177.507 31.5149L181.742 35.7499C180.459 37.2532 178.882 38.3899 177.012 39.1599C175.179 39.9299 173.18 40.3149 171.017 40.3149ZM164.307 22.2749C164.102 22.6997 163.934 23.1552 163.806 23.6415L176.666 23.6042C176.52 22.9733 176.324 22.4018 176.077 21.8899C175.6 20.8266 174.885 20.0199 173.932 19.4699C173.015 18.8832 171.879 18.5899 170.522 18.5899C169.092 18.5899 167.845 18.9199 166.782 19.5799C165.719 20.2032 164.894 21.1016 164.307 22.2749ZM195.593 39.1599C197.133 39.9299 198.856 40.3149 200.763 40.3149C203.22 40.3149 205.42 39.7099 207.363 38.4999C209.306 37.2899 210.828 35.6399 211.928 33.5499C213.065 31.4599 213.633 29.1132 213.633 26.5099C213.633 23.8699 213.065 21.5049 211.928 19.4149C210.828 17.3249 209.306 15.6749 207.363 14.4649C205.42 13.2549 203.22 12.6499 200.763 12.6499C198.856 12.6499 197.133 13.0532 195.593 13.8599C194.71 14.3338 193.921 14.909 193.228 15.5855V13.1999H186.023V50.8749H193.173V37.4259C193.869 38.1014 194.676 38.6794 195.593 39.1599ZM203.018 32.7799C201.991 33.3666 200.818 33.6599 199.498 33.6599C198.178 33.6599 197.005 33.3666 195.978 32.7799C194.988 32.1566 194.2 31.3132 193.613 30.2499C193.063 29.1499 192.788 27.8849 192.788 26.4549C192.788 25.0616 193.063 23.8332 193.613 22.7699C194.2 21.6699 195.006 20.8266 196.033 20.2399C197.06 19.6166 198.215 19.3049 199.498 19.3049C200.818 19.3049 201.991 19.6166 203.018 20.2399C204.045 20.8266 204.833 21.6699 205.383 22.7699C205.97 23.8332 206.263 25.0616 206.263 26.4549C206.263 27.8849 205.97 29.1499 205.383 30.2499C204.833 31.3132 204.045 32.1566 203.018 32.7799Z" fill="url(#paint0_linear_806_428)"/>
<defs>
<linearGradient id="paint0_linear_806_428" x1="1.11104e-06" y1="13.0505" x2="214.294" y2="20.6017" gradientUnits="userSpaceOnUse">
<stop stop-color="#FFB09F"/>
<stop offset="1" stop-color="#D0B3FF"/>
</linearGradient>
</defs>
</svg>
