<svg width="233" height="44" viewBox="0 0 233 44" fill="none" xmlns="http://www.w3.org/2000/svg">
<path fill-rule="evenodd" clip-rule="evenodd" d="M6.24 9.6H0V33.456H6.24V19.2668C6.48582 18.6679 6.85382 18.0856 7.344 17.52C8.176 16.528 9.264 15.712 10.608 15.072C11.952 14.432 13.456 14.112 15.12 14.112C17.328 14.112 18.912 14.592 19.872 15.552C20.864 16.48 21.36 17.952 21.36 19.968V33.456H27.6V18.864C27.6 18.6478 27.5958 18.4355 27.5875 18.2271C27.746 17.9885 27.9262 17.7529 28.128 17.52C28.96 16.528 30.048 15.712 31.392 15.072C32.736 14.432 34.24 14.112 35.904 14.112C38.112 14.112 39.712 14.592 40.704 15.552C41.696 16.48 42.192 17.952 42.192 19.968V33.456H48.432V18.864C48.432 17.168 48.16 15.712 47.616 14.496C47.104 13.248 46.384 12.224 45.456 11.424C44.528 10.624 43.44 10.032 42.192 9.648C40.944 9.264 39.584 9.072 38.112 9.072C36.48 9.072 34.992 9.328 33.648 9.84C32.336 10.352 31.184 11.04 30.192 11.904C29.2 12.768 28.4 13.728 27.792 14.784C27.5927 15.1302 27.4174 15.4764 27.2662 15.8227C27.1512 15.3526 27.0065 14.9104 26.832 14.496C26.32 13.248 25.6 12.224 24.672 11.424C23.744 10.624 22.656 10.032 21.408 9.648C20.16 9.264 18.8 9.072 17.328 9.072C15.632 9.072 14.112 9.328 12.768 9.84C11.424 10.352 10.256 11.056 9.264 11.952C8.304 12.816 7.536 13.776 6.96 14.832C6.6657 15.3715 6.4257 15.9195 6.24 16.4757V9.6ZM55.8697 32.448C57.8218 33.472 59.9818 33.984 62.3498 33.984C64.4618 33.984 66.2697 33.616 67.7737 32.88C69.2778 32.112 70.4937 31.12 71.4218 29.904C72.3498 28.656 73.0378 27.312 73.4858 25.872C73.502 25.8185 73.518 25.765 73.5337 25.7115V27.312C73.5337 28.24 73.5657 29.184 73.6298 30.144C73.6938 31.104 73.7577 31.904 73.8218 32.544L73.9657 33.456H79.7737V9.6H73.5337V16.7583C73.3845 16.2286 73.2085 15.7145 73.0057 15.216C72.2378 13.328 71.0057 11.84 69.3098 10.752C67.6457 9.632 65.4377 9.072 62.6858 9.072C60.1897 9.072 57.9497 9.6 55.9657 10.656C54.0137 11.68 52.4618 13.12 51.3098 14.976C50.1578 16.832 49.5817 19.024 49.5817 21.552C49.5817 24.016 50.1418 26.192 51.2618 28.08C52.4138 29.936 53.9497 31.392 55.8697 32.448ZM73.5337 21.552C73.5337 23.056 73.1658 24.384 72.4298 25.536C71.6938 26.688 70.6378 27.584 69.2617 28.224C67.8857 28.864 66.2538 29.184 64.3658 29.184C62.7017 29.184 61.2297 28.864 59.9497 28.224C58.7017 27.584 57.7258 26.704 57.0217 25.584C56.3177 24.432 55.9657 23.088 55.9657 21.552C55.9657 19.248 56.7017 17.408 58.1737 16.032C59.6457 14.624 61.7097 13.92 64.3658 13.92C66.2538 13.92 67.8697 14.224 69.2137 14.832C70.5897 15.408 71.6457 16.272 72.3817 17.424C73.1498 18.544 73.5337 19.92 73.5337 21.552ZM88.3013 9.6H82.0612V33.456H88.3013V19.2668C88.5471 18.6679 88.9151 18.0856 89.4052 17.52C90.2372 16.528 91.3252 15.712 92.6692 15.072C94.0132 14.432 95.5172 14.112 97.1812 14.112C99.3892 14.112 100.973 14.592 101.933 15.552C102.925 16.48 103.421 17.952 103.421 19.968V33.456H109.661V18.864C109.661 17.168 109.405 15.712 108.893 14.496C108.381 13.248 107.661 12.224 106.733 11.424C105.805 10.624 104.717 10.032 103.469 9.648C102.221 9.264 100.861 9.072 99.3892 9.072C97.6932 9.072 96.1733 9.328 94.8293 9.84C93.4852 10.352 92.3173 11.056 91.3252 11.952C90.3652 12.816 89.5972 13.776 89.0213 14.832C88.7269 15.3715 88.487 15.9195 88.3013 16.4757V9.6ZM117.071 32.448C119.022 33.472 121.198 33.984 123.599 33.984C125.71 33.984 127.518 33.616 129.022 32.88C130.526 32.112 131.742 31.12 132.671 29.904C133.599 28.656 134.287 27.312 134.735 25.872C134.751 25.8185 134.767 25.7649 134.783 25.7115V27.312C134.783 28.336 134.83 29.44 134.927 30.624C135.022 31.776 135.119 32.72 135.214 33.456H141.022V0H134.783V16.8207C134.767 16.7656 134.751 16.7107 134.735 16.656C134.319 15.152 133.647 13.84 132.718 12.72C131.791 11.568 130.574 10.672 129.071 10.032C127.567 9.392 125.742 9.072 123.599 9.072C121.134 9.072 118.943 9.6 117.022 10.656C115.102 11.68 113.583 13.12 112.462 14.976C111.375 16.832 110.83 19.024 110.83 21.552C110.83 24.016 111.391 26.192 112.51 28.08C113.63 29.936 115.151 31.392 117.071 32.448ZM134.783 21.552C134.783 23.056 134.414 24.384 133.679 25.536C132.942 26.688 131.886 27.584 130.511 28.224C129.134 28.864 127.502 29.184 125.614 29.184C123.95 29.184 122.478 28.864 121.198 28.224C119.95 27.584 118.974 26.704 118.27 25.584C117.567 24.432 117.214 23.088 117.214 21.552C117.214 19.248 117.95 17.392 119.422 15.984C120.894 14.576 122.959 13.872 125.614 13.872C127.502 13.872 129.119 14.176 130.462 14.784C131.839 15.392 132.895 16.272 133.63 17.424C134.399 18.544 134.783 19.92 134.783 21.552ZM172.18 25.536H166.132C165.748 26.624 164.884 27.52 163.54 28.224C162.228 28.896 160.58 29.232 158.596 29.232C156.804 29.232 155.252 28.944 153.94 28.368C152.66 27.792 151.636 27.008 150.868 26.016C150.132 25.024 149.684 23.92 149.524 22.704H172.276C172.436 19.6 172.004 17.056 170.98 15.072C169.988 13.056 168.452 11.552 166.372 10.56C164.292 9.568 161.684 9.072 158.548 9.072C155.476 9.072 152.788 9.568 150.484 10.56C148.212 11.552 146.436 12.992 145.156 14.88C143.876 16.736 143.236 18.976 143.236 21.6C143.236 24.224 143.892 26.464 145.204 28.32C146.516 30.176 148.34 31.6 150.676 32.592C153.012 33.552 155.7 34.032 158.74 34.032C161.46 34.032 163.764 33.664 165.652 32.928C167.54 32.192 169.028 31.184 170.116 29.904C171.236 28.624 171.924 27.168 172.18 25.536ZM152.644 15.36C154.084 14.336 155.956 13.824 158.26 13.824C160.596 13.824 162.436 14.304 163.78 15.264C165.156 16.192 165.924 17.456 166.084 19.056H149.86C150.276 17.584 151.204 16.352 152.644 15.36ZM201.351 25.536H195.303C194.919 26.624 194.055 27.52 192.711 28.224C191.399 28.896 189.751 29.232 187.767 29.232C185.975 29.232 184.423 28.944 183.111 28.368C181.831 27.792 180.807 27.008 180.039 26.016C179.303 25.024 178.855 23.92 178.695 22.704H201.447C201.607 19.6 201.175 17.056 200.151 15.072C199.159 13.056 197.623 11.552 195.543 10.56C193.463 9.568 190.855 9.072 187.719 9.072C184.647 9.072 181.959 9.568 179.655 10.56C177.383 11.552 175.607 12.992 174.327 14.88C173.047 16.736 172.407 18.976 172.407 21.6C172.407 24.224 173.063 26.464 174.375 28.32C175.687 30.176 177.511 31.6 179.847 32.592C182.183 33.552 184.871 34.032 187.911 34.032C190.631 34.032 192.935 33.664 194.823 32.928C196.711 32.192 198.199 31.184 199.287 29.904C200.407 28.624 201.095 27.168 201.351 25.536ZM181.815 15.36C183.255 14.336 185.127 13.824 187.431 13.824C189.767 13.824 191.607 14.304 192.951 15.264C194.327 16.192 195.095 17.456 195.255 19.056H179.031C179.447 17.584 180.375 16.352 181.815 15.36ZM214.683 32.928C216.187 33.664 217.995 34.032 220.107 34.032C222.475 34.032 224.619 33.52 226.539 32.496C228.459 31.472 229.995 30.032 231.147 28.176C232.299 26.288 232.875 24.08 232.875 21.552C232.875 19.088 232.299 16.928 231.147 15.072C230.027 13.184 228.507 11.712 226.587 10.656C224.667 9.6 222.507 9.072 220.107 9.072C217.963 9.072 216.139 9.392 214.635 10.032C213.163 10.672 211.963 11.568 211.035 12.72C210.107 13.84 209.419 15.152 208.971 16.656V15.936L208.683 9.6H202.731V43.056H208.971V25.7115C208.986 25.7649 209.002 25.8185 209.019 25.872C209.467 27.344 210.155 28.704 211.083 29.952C212.011 31.168 213.211 32.16 214.683 32.928ZM208.971 21.552C208.971 19.92 209.371 18.544 210.171 17.424C210.971 16.272 212.059 15.392 213.435 14.784C214.843 14.176 216.395 13.872 218.091 13.872C220.779 13.872 222.843 14.576 224.283 15.984C225.755 17.392 226.491 19.248 226.491 21.552C226.491 23.088 226.139 24.432 225.435 25.584C224.763 26.704 223.787 27.584 222.507 28.224C221.259 28.864 219.787 29.184 218.091 29.184C216.235 29.184 214.619 28.864 213.243 28.224C211.867 27.584 210.811 26.704 210.075 25.584C209.339 24.432 208.971 23.088 208.971 21.552Z" fill="url(#paint0_linear_804_398)"/>
<defs>
<linearGradient id="paint0_linear_804_398" x1="1.21111e-06" y1="11.0448" x2="233.405" y2="21.6382" gradientUnits="userSpaceOnUse">
<stop stop-color="#FFB661"/>
<stop offset="1" stop-color="#FF8C8C"/>
</linearGradient>
</defs>
</svg>
