<svg xmlns="http://www.w3.org/2000/svg" version="1.0" width="135.000000pt" height="135.000000pt" viewBox="0 0 135.000000 135.000000" preserveAspectRatio="xMidYMid meet">

<g transform="translate(0.000000,135.000000) scale(0.100000,-0.100000)" fill="#ff6522" stroke="none">
<path d="M885 1147 c-25 -39 -39 -87 -27 -99 15 -15 30 -2 47 39 28 66 13 110 -20 60z" fill="#ff6522"/>
<path d="M562 1061 c-100 -35 -185 -147 -199 -259 -5 -49 -7 -52 -34 -52 -16 0 -32 7 -38 17 -7 14 -23 18 -73 18 -58 0 -63 -2 -66 -22 -2 -13 -9 -23 -16 -23 -25 0 -66 -41 -86 -88 -35 -79 -42 -129 -30 -205 13 -77 41 -118 83 -122 63 -7 107 -17 107 -25 0 -5 3 -15 6 -24 5 -14 -6 -16 -77 -17 -46 -1 -95 -4 -109 -8 -29 -8 -37 -35 -18 -58 11 -14 45 -15 323 -8 622 15 679 22 177 22 -346 0 -476 3 -484 11 -7 7 -10 12 -7 12 2 0 191 2 419 5 381 5 794 20 830 30 8 3 21 0 29 -4 12 -8 12 -12 2 -25 -11 -13 -38 -16 -150 -16 -80 0 -142 -5 -151 -11 -11 -8 20 -9 109 -5 68 3 148 6 177 6 43 0 54 4 59 19 15 48 -16 65 -118 62 -52 -2 -68 1 -65 11 3 7 19 15 37 19 38 8 48 16 35 29 -5 5 -133 14 -284 20 -240 11 -309 10 -542 -5 -260 -17 -267 -17 -299 1 -57 34 -74 133 -42 247 15 55 20 61 59 79 35 15 62 18 140 16 l97 -3 12 -42 c16 -52 55 -121 87 -150 86 -80 234 -102 340 -50 84 41 147 122 163 211 4 21 13 39 19 41 6 2 71 5 143 8 l133 4 20 -54 c25 -66 27 -191 5 -253 -26 -74 -17 -111 19 -75 39 40 55 213 27 307 -15 52 -67 118 -94 118 -9 0 -17 6 -17 14 0 20 -23 26 -91 26 -66 0 -99 -12 -99 -36 0 -11 -8 -14 -27 -12 -24 3 -28 9 -38 58 -25 130 -146 254 -242 249 -15 -1 -46 1 -68 5 -28 4 -57 0 -93 -13z m171 -41 c5 -4 -29 -36 -75 -71 -45 -34 -122 -102 -170 -150 l-88 -88 0 34 c0 31 14 49 128 164 122 124 128 129 162 124 19 -2 39 -8 43 -13z m-176 -37 c-29 -26 -74 -68 -101 -93 l-48 -45 25 50 c27 54 53 81 107 114 64 38 73 24 17 -26z m241 7 c17 -11 32 -23 32 -28 0 -4 -17 -25 -39 -46 -31 -30 -43 -36 -63 -31 -43 11 -42 -13 2 -53 88 -79 51 -202 -60 -202 -71 0 -120 53 -120 130 0 55 23 86 78 106 62 23 70 32 39 40 -15 3 -24 10 -21 16 8 12 104 88 112 88 4 0 22 -9 40 -20z m89 -96 l20 -36 -45 -42 -45 -43 -23 46 c-13 25 -22 45 -21 46 1 0 19 15 40 33 21 18 41 32 45 32 5 0 17 -16 29 -36z m37 -106 c12 -47 6 -63 -37 -92 -23 -17 -69 -51 -102 -78 -33 -26 -85 -67 -116 -91 l-56 -45 -37 17 -36 16 50 38 c32 23 62 37 81 37 68 0 129 48 145 116 6 25 77 102 95 104 4 0 9 -10 13 -22z m269 -7 c5 -5 -20 -11 -54 -15 -65 -8 -99 5 -69 25 16 11 110 3 123 -10z m-671 -98 c3 -4 -14 -25 -37 -45 l-42 -38 -18 40 -18 41 49 50 49 50 7 -45 c3 -25 8 -49 10 -53z m-257 77 c14 -6 4 -9 -37 -9 -33 -1 -58 3 -58 9 0 12 67 12 95 0z m628 -151 c-42 -78 -121 -129 -200 -129 l-38 0 34 28 c163 130 226 176 229 165 2 -7 -9 -36 -25 -64z m-336 -35 c-49 -39 -58 -41 -81 -15 -16 18 -15 20 25 54 l43 35 27 -21 28 -20 -42 -33z m357 -240 c9 -3 16 -14 16 -23 0 -9 5 -22 10 -27 10 -10 -241 -24 -433 -24 -62 0 -67 1 -53 16 9 8 16 24 16 34 0 16 9 20 53 23 94 6 375 7 391 1z m-528 -29 c-18 -17 -39 -25 -63 -25 l-36 0 24 19 c24 19 49 28 83 30 16 1 15 -3 -8 -24z m599 15 c-3 -5 -10 -10 -16 -10 -5 0 -9 5 -9 10 0 6 7 10 16 10 8 0 12 -4 9 -10z m93 -2 c-3 -7 -20 -14 -39 -16 -32 -3 -33 -3 -14 12 24 19 58 21 53 4z m52 2 c0 -5 -4 -10 -10 -10 -5 0 -10 5 -10 10 0 6 5 10 10 10 6 0 10 -4 10 -10z m-865 -20 c-20 -22 -31 -20 -22 5 4 8 14 15 23 15 16 0 16 -2 -1 -20z m170 1 c-3 -6 -11 -11 -17 -11 -6 0 -6 6 2 15 14 17 26 13 15 -4z" fill="#ff6522"/>
<path d="M938 1059 c-28 -21 -36 -43 -19 -53 12 -8 71 42 71 60 0 20 -20 17 -52 -7z" fill="#ff6522"/>
<path d="M984 996 c-65 -29 -49 -55 22 -36 32 9 44 18 44 31 0 22 -22 24 -66 5z" fill="#ff6522"/>
<path d="M1115 684 c-67 -10 -75 -14 -75 -39 0 -41 39 -59 115 -51 72 7 115 23 115 41 0 35 -78 60 -155 49z m73 -34 c23 0 42 -4 42 -9 0 -13 -116 -22 -145 -11 -38 14 -20 34 24 26 20 -3 55 -6 79 -6z" fill="#ff6522"/>
</g>
</svg>