<svg xmlns="http://www.w3.org/2000/svg" version="1.0" width="127.000000pt" height="127.000000pt" viewBox="0 0 127.000000 127.000000" preserveAspectRatio="xMidYMid meet">

<g transform="translate(0.000000,127.000000) scale(0.100000,-0.100000)" fill="#2948b8" stroke="none">
<path d="M301 1169 c-21 -23 -37 -105 -26 -138 6 -20 3 -21 -92 -21 -73 0 -104 -4 -121 -16 l-22 -15 0 -433 c0 -403 1 -434 18 -449 15 -14 52 -16 276 -16 257 -1 296 4 296 34 0 20 3 19 53 -7 36 -20 57 -23 148 -23 100 0 108 2 173 34 85 44 166 128 197 208 32 81 33 214 1 295 -42 104 -149 199 -261 232 -94 28 -185 19 -293 -28 -15 -7 -16 6 -15 151 2 137 0 162 -16 186 l-17 27 -140 0 c-129 0 -141 -2 -159 -21z m295 -54 c3 -20 3 -65 -1 -100 l-7 -65 -134 0 -134 0 0 84 c0 46 3 91 6 100 5 13 27 16 135 16 l128 0 7 -35z m-328 -157 c7 -7 12 -38 12 -70 l0 -58 -100 0 -100 0 0 63 c0 35 3 67 7 70 12 12 168 8 181 -5z m322 -113 c0 -36 -2 -65 -4 -65 -2 0 -12 -3 -21 -7 -14 -5 -16 -2 -10 15 3 12 3 31 0 42 -6 18 -15 20 -101 20 l-94 0 0 -235 c0 -258 -4 -241 61 -236 21 2 28 -5 42 -39 l15 -40 -47 0 c-26 0 -52 -5 -59 -12 -7 -7 -12 -34 -12 -60 l0 -49 107 2 c92 1 108 -1 120 -17 7 -10 13 -21 13 -26 0 -17 -73 -24 -207 -20 l-73 2 0 395 0 395 135 0 135 0 0 -65z m176 -194 c-34 -99 -65 -176 -69 -172 -5 5 9 67 31 137 23 71 46 148 52 172 8 30 16 42 29 42 15 0 10 -23 -43 -179z m94 156 c0 -13 -7 -32 -16 -43 -15 -18 -15 -18 -10 6 3 14 6 33 6 43 0 9 5 17 10 17 6 0 10 -10 10 -23z m-142 -129 c-63 -183 -94 -225 -47 -64 11 39 29 101 40 139 15 51 24 67 38 67 16 0 13 -16 -31 -142z m270 117 c29 -13 75 -47 102 -75 l48 -50 -36 -67 c-37 -68 -37 -68 -84 -71 -49 -3 -78 -27 -78 -62 0 -9 -16 -31 -36 -48 -34 -31 -35 -33 -29 -84 6 -47 3 -60 -25 -113 -19 -37 -30 -69 -27 -84 5 -23 3 -23 -43 -18 -104 12 -204 85 -261 189 -32 60 -34 68 -34 165 0 56 3 104 7 108 14 14 50 -8 65 -40 10 -21 33 -43 59 -57 42 -22 64 -56 64 -96 0 -19 39 -62 56 -62 24 0 54 51 54 93 0 23 9 54 21 74 17 27 22 49 20 93 -1 47 5 70 34 131 19 40 35 79 35 86 0 20 29 16 88 -12z m-468 -26 c0 -27 -13 -67 -37 -117 -33 -66 -38 -87 -42 -159 -3 -74 -5 -83 -22 -83 -18 0 -19 10 -19 200 l0 200 60 0 60 0 0 -41z m180 27 c0 -3 -13 -40 -29 -83 -15 -43 -34 -102 -41 -131 -7 -30 -16 -50 -21 -45 -11 11 46 244 62 254 15 9 29 12 29 5z m-422 -335 c-2 -181 -6 -332 -9 -335 -8 -8 -165 -9 -178 -1 -8 4 -11 111 -11 336 l0 329 101 0 100 0 -3 -329z m347 282 c-12 -33 -35 -127 -35 -147 0 -13 -3 -17 -10 -10 -11 11 7 142 22 162 15 18 31 15 23 -5z m-67 -75 c-11 -50 -15 -55 -29 -41 -9 9 -6 21 11 47 12 20 23 36 25 36 1 0 -1 -19 -7 -42z m231 -116 c-5 -12 -15 -35 -24 -52 -8 -16 -15 -49 -15 -75 0 -33 -4 -45 -15 -45 -22 0 -19 26 17 136 23 71 33 92 38 78 4 -10 4 -29 -1 -42z m390 14 c14 -56 14 -153 1 -161 -6 -4 -10 23 -10 74 0 53 -4 84 -13 93 -8 7 -12 19 -9 26 8 24 20 11 31 -32z m-40 -105 c-1 -60 2 -114 6 -120 9 -15 -2 -61 -15 -61 -11 0 -14 272 -3 283 12 13 13 6 12 -102z m-45 -95 c-4 -80 -11 -146 -15 -146 -14 0 -11 274 3 288 6 6 13 10 15 8 3 -2 1 -70 -3 -150z m-110 -55 c-14 -129 -22 -171 -32 -171 -9 0 -12 6 -7 18 3 9 9 72 12 140 3 67 10 122 15 122 4 0 8 9 8 19 0 24 11 54 17 47 3 -3 -3 -81 -13 -175z m66 162 c0 -10 -5 -82 -12 -161 -9 -108 -15 -142 -26 -142 -8 0 -11 7 -8 18 2 9 8 81 12 160 5 110 10 142 20 142 8 0 14 -8 14 -17z m-103 -100 c-3 -16 -11 -66 -17 -113 -16 -117 -19 -130 -29 -130 -11 0 -4 70 11 122 6 20 8 57 5 81 -4 28 -2 48 5 55 20 20 31 13 25 -15z m-439 -125 c22 -22 12 -28 -48 -28 -53 0 -60 2 -60 20 0 17 7 20 48 20 26 0 53 -5 60 -12z" fill="#2948b8"/>
<path d="M385 1060 c-13 -20 8 -30 65 -30 73 0 95 7 79 26 -13 16 -134 20 -144 4z" fill="#2948b8"/>
<path d="M147 914 c-16 -16 -5 -24 34 -24 28 0 39 4 37 13 -5 13 -60 22 -71 11z" fill="#2948b8"/>
<path d="M924 768 c-4 -6 -3 -13 4 -16 6 -2 31 -19 56 -38 48 -36 74 -38 56 -4 -21 40 -102 81 -116 58z" fill="#2948b8"/>
<path d="M1050 635 c0 -10 7 -15 18 -13 21 4 19 22 -2 26 -10 2 -16 -3 -16 -13z" fill="#2948b8"/>
<path d="M120 545 l0 -164 33 -6 c18 -4 45 -2 60 4 l27 11 0 144 c0 79 -3 151 -6 160 -5 12 -20 16 -60 16 l-54 0 0 -165z m78 -2 c-3 -112 -5 -128 -20 -131 -16 -3 -18 8 -18 127 0 125 1 131 20 131 20 0 20 -5 18 -127z" fill="#2948b8"/>
<path d="M133 293 c-8 -3 -13 -25 -13 -59 l0 -55 58 3 57 3 3 49 c2 32 -1 52 -10 57 -14 9 -75 11 -95 2z m67 -53 c0 -13 -7 -20 -20 -20 -13 0 -20 7 -20 20 0 13 7 20 20 20 13 0 20 -7 20 -20z" fill="#2948b8"/>
<path d="M971 998 c-15 -41 -20 -87 -11 -93 15 -9 40 38 40 77 0 42 -16 50 -29 16z" fill="#2948b8"/>
<path d="M1046 949 c-23 -18 -36 -49 -20 -49 15 0 64 43 64 56 0 19 -13 18 -44 -7z" fill="#2948b8"/>
<path d="M1093 895 c-18 -8 -33 -21 -33 -30 0 -19 2 -19 45 -1 19 8 35 22 35 30 0 19 -6 19 -47 1z" fill="#2948b8"/>
</g>
</svg>