<svg xmlns="http://www.w3.org/2000/svg" version="1.0" width="76.000000pt" height="76.000000pt" viewBox="0 0 76.000000 76.000000" preserveAspectRatio="xMidYMid meet">

<g transform="translate(0.000000,76.000000) scale(0.100000,-0.100000)" fill="#00a8a8" stroke="none">
<path d="M300 740 c-53 -53 14 -136 75 -96 18 12 25 25 25 50 0 59 -59 87 -100 46z m77 -26 c8 -21 -9 -48 -32 -53 -26 -5 -47 26 -34 50 12 23 57 25 66 3z" fill="#00a8a8"/>
<path d="M559 710 c-81 -83 -61 -140 49 -140 72 0 66 23 -8 30 -59 6 -83 27 -61 54 12 14 15 13 33 -7 l19 -22 -5 33 c-8 46 8 72 43 72 37 0 63 -28 38 -41 -29 -16 -19 -29 21 -26 34 2 37 0 40 -25 3 -22 -2 -30 -22 -39 -14 -7 -23 -16 -20 -20 16 -27 74 15 74 53 0 13 -11 34 -24 48 -14 14 -36 37 -50 53 -38 41 -69 36 -127 -23z" fill="#00a8a8"/>
<path d="M74 683 c-14 -16 -36 -39 -50 -53 -29 -31 -31 -63 -4 -90 15 -15 33 -20 75 -20 30 0 55 5 55 10 0 6 -18 10 -41 10 -53 0 -79 15 -79 45 0 32 16 40 30 14 15 -27 23 -18 24 27 1 43 21 60 59 50 29 -7 36 -30 12 -40 -30 -11 -16 -27 18 -21 24 5 37 2 46 -9 16 -20 6 -52 -19 -59 -25 -6 -26 -27 -2 -27 26 0 52 31 52 63 0 25 -23 57 -41 57 -5 0 -9 6 -9 14 0 21 -48 56 -77 56 -13 0 -35 -12 -49 -27z" fill="#00a8a8"/>
<path d="M461 464 c-19 -24 -21 -40 -21 -159 0 -117 2 -135 20 -158 11 -14 34 -28 50 -32 27 -6 30 -10 30 -46 l0 -39 -79 0 -78 0 -22 58 c-11 32 -32 69 -46 82 -14 13 -25 32 -25 42 0 22 -3 22 50 3 50 -18 73 -7 68 33 -2 19 -12 28 -43 39 -21 7 -49 22 -60 33 -31 29 -110 27 -156 -4 -45 -31 -78 -90 -63 -114 22 -34 42 -28 79 23 13 18 14 16 15 -33 0 -63 -43 -159 -74 -164 -11 -2 -21 -9 -24 -15 -3 -10 69 -13 338 -13 269 0 341 3 338 13 -3 6 -21 13 -42 15 -32 3 -37 6 -34 25 2 14 11 23 25 25 42 6 53 37 53 154 0 95 -2 110 -20 128 -11 11 -31 20 -45 20 -22 0 -25 4 -25 33 0 20 -8 42 -20 55 -18 19 -32 22 -95 22 -68 0 -75 -2 -94 -26z m169 -14 c18 -18 20 -33 20 -143 0 -156 -6 -167 -90 -167 -87 0 -90 5 -90 165 0 159 3 165 86 165 41 0 59 -5 74 -20z m98 -219 c3 -127 1 -131 -59 -131 -47 0 -52 6 -23 35 22 22 24 32 24 120 l0 96 28 -3 27 -3 3 -114z m-430 64 c17 -14 44 -30 61 -36 37 -13 42 -34 6 -25 -46 12 -75 25 -75 36 0 5 -4 10 -9 10 -6 0 -11 -17 -13 -37 -3 -35 -6 -38 -35 -41 -31 -3 -33 -1 -33 27 0 18 7 34 17 40 29 15 6 25 -27 11 -16 -7 -39 -28 -51 -46 -25 -41 -45 -36 -24 6 39 76 127 103 183 55z m-1 -144 c27 -27 61 -107 49 -118 -10 -10 -25 8 -31 37 -9 40 -52 91 -70 83 -8 -3 -15 -11 -15 -18 0 -18 -50 -105 -61 -105 -15 0 -10 23 11 55 11 17 20 45 20 63 0 30 2 32 34 32 25 0 43 -8 63 -29z m-13 -71 c9 -22 16 -43 16 -45 0 -3 -21 -5 -46 -5 -25 0 -44 3 -42 8 24 51 43 82 49 82 4 0 14 -18 23 -40z m316 15 c7 -8 23 -15 36 -15 19 0 24 -5 24 -25 0 -23 -4 -25 -45 -25 l-45 0 0 40 c0 42 9 50 30 25z" fill="#00a8a8"/>
<path d="M600 315 c0 -14 5 -25 10 -25 6 0 10 11 10 25 0 14 -4 25 -10 25 -5 0 -10 -11 -10 -25z" fill="#00a8a8"/>
<path d="M600 231 c0 -40 -1 -41 -35 -41 -19 0 -35 -4 -35 -9 0 -14 38 -24 66 -17 21 6 24 12 24 51 0 24 -4 47 -10 50 -6 4 -10 -10 -10 -34z" fill="#00a8a8"/>
<path d="M205 450 c-27 -29 -10 -74 28 -78 53 -6 77 46 39 81 -25 22 -45 21 -67 -3z m58 -24 c7 -17 -18 -40 -33 -31 -5 3 -10 15 -10 26 0 23 35 27 43 5z" fill="#00a8a8"/>
<path d="M7 24 c-14 -14 -6 -24 19 -24 16 0 24 5 22 13 -5 14 -31 21 -41 11z" fill="#00a8a8"/>
</g>
</svg>