<svg xmlns="http://www.w3.org/2000/svg" version="1.0" width="152.000000pt" height="152.000000pt" viewBox="0 0 152.000000 152.000000" preserveAspectRatio="xMidYMid meet">

<g transform="translate(0.000000,152.000000) scale(0.100000,-0.100000)" fill="#c4302b" stroke="none">
<path d="M340 1330 c-69 -5 -142 -14 -163 -20 -57 -17 -113 -72 -137 -136 -30 -82 -44 -266 -37 -509 8 -275 31 -366 104 -422 65 -49 108 -55 513 -60 369 -5 636 5 723 28 56 15 112 71 137 135 30 82 44 266 37 509 -10 338 -45 423 -190 462 -63 18 -788 27 -987 13z m963 -60 c125 -26 155 -102 164 -415 6 -219 -7 -414 -32 -485 -20 -56 -68 -107 -115 -121 -52 -15 -732 -23 -942 -11 -239 15 -265 28 -305 158 -16 51 -18 98 -18 359 0 477 18 511 275 526 169 10 913 2 973 -11z" fill="#c4302b"/>
<path d="M560 745 c0 -241 3 -297 14 -301 22 -8 511 270 511 291 0 12 -72 60 -245 161 -135 79 -253 143 -262 144 -17 0 -18 -21 -18 -295z m273 95 c97 -57 176 -104 175 -106 -2 -1 -73 -41 -158 -89 -85 -48 -174 -98 -197 -111 l-43 -25 0 232 0 231 23 -14 c12 -8 102 -61 200 -118z" fill="#c4302b"/>
</g>
</svg>